# xmcd
#
# Track frame offsets:
#	150
#	15312
#	29262
#	45037
#	61150
#	77355
#	95006
#	111158
#	128180
#	141664
#	158584
#	173273
#	189110
#
# Disc length: 2728 seconds
#
# Revision: 1
# Processed by: cddbd v1.5.2PL0 Copyright (c) Steve Scherf et al.
# Submitted via: audiograbber 1.83.01
#
DISCID=8d0aa60d
DTITLE=Various Artist - CDX 564
DYEAR=2013
DGENRE=Country
TTITLE0=Big and Rich - Cheat On You
TTITLE1=Phil Vassar - Love Is Alive
TTITLE2=Gary Allan - Pieces
TTITLE3=JJ Lawhorn - Stomping Grounds
TTITLE4=Jon Pardi - Up All Night
TTITLE5=Aaron and Amanda Crabb - Im Learning
TTITLE6=Susan Ashton - Love Is Alive
TTITLE7=Shelley Laine - Born Again American
TTITLE8=Bobby Dean - Kiss My Doublewide
TTITLE9=Tim Culpepper - Pourin' Whiskey On Pain
TTITLE10=Keith Bryant - Ridin' With The Legend
TTITLE11=Jetset Getset  - Saturday Night
TTITLE12=Jeff Maddox - These Days
EXTD=
EXTT0=
EXTT1=
EXTT2=
EXTT3=
EXTT4=
EXTT5=
EXTT6=
EXTT7=
EXTT8=
EXTT9=
EXTT10=
EXTT11=
EXTT12=
PLAYORDER=
